<svg xmlns="http://www.w3.org/2000/svg" width="24" height="24" viewBox="0 0 24 24">
  <g id="account_circle-24px" transform="translate(1 1)">
    <path id="Pfad_2733" data-name="Pfad 2733" d="M0,0H24V24H0Z" transform="translate(-1 -1)" fill="rgba(0,0,0,0)"/>
    <g id="Gruppe_18296" data-name="Gruppe 18296" transform="translate(4.583 2.75)">
      <path id="Pfad_16" data-name="Pfad 16" d="M2.2,65.292H.212c-.142,0-.212.064-.212.2V67.5c0,.134.071.2.212.2H2.2c.142,0,.212-.064.212-.2v-2.01a.187.187,0,0,0-.213-.2Z" transform="translate(0 -60.602)" fill="#fff"/>
      <path id="Pfad_17" data-name="Pfad 17" d="M69.787,5.713a3.125,3.125,0,0,0-1.465-.96,7.409,7.409,0,0,0-2.237-.294,7.727,7.727,0,0,0-1.168.086,6.205,6.205,0,0,1-.75.086q-.17,0-.17-.15V.21a.189.189,0,0,0-.05-.159.184.184,0,0,0-.156-.056H62.206c-.142,0-.206.072-.206.287V15.888c0,.029.064.1.184.143a13.865,13.865,0,0,0,1.565.33,13.354,13.354,0,0,0,1.94.129,7.3,7.3,0,0,0,2.541-.38,3.314,3.314,0,0,0,1.572-1.19,5,5,0,0,0,.8-2.028,15.755,15.755,0,0,0,.226-2.9,11.254,11.254,0,0,0-.241-2.544A4.043,4.043,0,0,0,69.787,5.713Zm-1.14,6.757a3.494,3.494,0,0,1-.418,1.447,1.748,1.748,0,0,1-.934.767,5.087,5.087,0,0,1-1.635.215c-.234,0-.51-.014-.814-.036a2.919,2.919,0,0,1-.708-.122.214.214,0,0,1-.149-.236V6.58a.294.294,0,0,1,.17-.308,5.861,5.861,0,0,1,.666-.129,6.708,6.708,0,0,1,.977-.065,4.99,4.99,0,0,1,1.423.172,1.647,1.647,0,0,1,.906.645,3.14,3.14,0,0,1,.467,1.29,12.175,12.175,0,0,1,.134,2.035A20.476,20.476,0,0,1,68.647,12.47Z" transform="translate(-57.611 0.007)" fill="#fff"/>
      <path id="Pfad_20" data-name="Pfad 20" d="M2.2,188.192H.212c-.142,0-.212.064-.212.2V190.4c0,.134.071.2.212.2H2.2c.142,0,.212-.064.212-.2v-2.011a.187.187,0,0,0-.213-.2Z" transform="translate(0 -174.669)" fill="#fff"/>
    </g>
  </g>
</svg>
