<svg id="ic-apps-24" xmlns="http://www.w3.org/2000/svg" width="24" height="24" viewBox="0 0 24 24">
  <g id="Gruppe_21671" data-name="Gruppe 21671">
    <path id="Pfad_3553" data-name="Pfad 3553" d="M0,0H24V24H0Z" fill="none"/>
  </g>
  <g id="Gruppe_21674" data-name="Gruppe 21674" transform="translate(4 4)">
    <g id="Gruppe_21673" data-name="Gruppe 21673">
      <g id="Gruppe_21672" data-name="Gruppe 21672">
        <path id="Pfad_3554" data-name="Pfad 3554" d="M6,8H6A2.006,2.006,0,0,0,8,6H8A2.006,2.006,0,0,0,6,4H6A2.006,2.006,0,0,0,4,6H4A2.006,2.006,0,0,0,6,8Zm6,12h0a2.006,2.006,0,0,0,2-2h0a2.006,2.006,0,0,0-2-2h0a2.006,2.006,0,0,0-2,2h0A2.006,2.006,0,0,0,12,20ZM6,20H6a2.006,2.006,0,0,0,2-2H8a2.006,2.006,0,0,0-2-2H6a2.006,2.006,0,0,0-2,2H4A2.006,2.006,0,0,0,6,20Zm0-6H6a2.006,2.006,0,0,0,2-2H8a2.006,2.006,0,0,0-2-2H6a2.006,2.006,0,0,0-2,2H4A2.006,2.006,0,0,0,6,14Zm6,0h0a2.006,2.006,0,0,0,2-2h0a2.006,2.006,0,0,0-2-2h0a2.006,2.006,0,0,0-2,2h0A2.006,2.006,0,0,0,12,14Zm4-8h0a2.006,2.006,0,0,0,2,2h0a2.006,2.006,0,0,0,2-2h0a2.006,2.006,0,0,0-2-2h0A2.006,2.006,0,0,0,16,6ZM12,8h0a2.006,2.006,0,0,0,2-2h0a2.006,2.006,0,0,0-2-2h0a2.006,2.006,0,0,0-2,2h0A2.006,2.006,0,0,0,12,8Zm6,6h0a2.006,2.006,0,0,0,2-2h0a2.006,2.006,0,0,0-2-2h0a2.006,2.006,0,0,0-2,2h0A2.006,2.006,0,0,0,18,14Zm0,6h0a2.006,2.006,0,0,0,2-2h0a2.006,2.006,0,0,0-2-2h0a2.006,2.006,0,0,0-2,2h0A2.006,2.006,0,0,0,18,20Z" transform="translate(-4 -4)" fill="#023e84"/>
      </g>
    </g>
  </g>
</svg>
