<svg id="ic-buhl-anmelden-24" xmlns="http://www.w3.org/2000/svg" width="24" height="24" viewBox="0 0 24 24">
  <path id="Pfad_2733" data-name="Pfad 2733" d="M0,0H24V24H0Z" fill="none"/>
  <g id="Gruppe_18296" data-name="Gruppe 18296" transform="translate(5 3)">
    <path id="Pfad_16" data-name="Pfad 16" d="M2.4,65.293H.232c-.155,0-.232.07-.232.216V67.7c0,.147.077.216.232.216H2.4c.155,0,.232-.07.232-.216V65.509a.2.2,0,0,0-.232-.216Z" transform="translate(0 -60.176)" fill="#023e84"/>
    <path id="Pfad_17" data-name="Pfad 17" d="M70.5,6.233a3.409,3.409,0,0,0-1.6-1.048,8.083,8.083,0,0,0-2.44-.321,8.429,8.429,0,0,0-1.274.094,6.769,6.769,0,0,1-.819.094q-.185,0-.185-.164V.229a.207.207,0,0,0-.055-.174.2.2,0,0,0-.17-.061H62.225c-.155,0-.225.078-.225.313V17.333c0,.031.07.109.2.156a15.125,15.125,0,0,0,1.707.36,14.568,14.568,0,0,0,2.116.141,7.959,7.959,0,0,0,2.772-.414,3.616,3.616,0,0,0,1.714-1.3,5.45,5.45,0,0,0,.873-2.212,17.189,17.189,0,0,0,.247-3.166,12.278,12.278,0,0,0-.263-2.775A4.411,4.411,0,0,0,70.5,6.233ZM69.252,13.6a3.812,3.812,0,0,1-.456,1.579,1.907,1.907,0,0,1-1.019.836,5.55,5.55,0,0,1-1.784.235c-.255,0-.556-.016-.888-.039a3.184,3.184,0,0,1-.772-.133.234.234,0,0,1-.162-.258V7.179a.321.321,0,0,1,.185-.336,6.393,6.393,0,0,1,.726-.141,7.318,7.318,0,0,1,1.066-.07,5.444,5.444,0,0,1,1.552.188,1.8,1.8,0,0,1,.988.7A3.425,3.425,0,0,1,69.2,8.93a13.283,13.283,0,0,1,.147,2.22A22.338,22.338,0,0,1,69.252,13.6Z" transform="translate(-57.212 0.007)" fill="#023e84"/>
    <path id="Pfad_20" data-name="Pfad 20" d="M2.4,188.193H.232c-.155,0-.232.07-.232.216V190.6c0,.147.077.216.232.216H2.4c.155,0,.232-.07.232-.216v-2.193a.2.2,0,0,0-.232-.216Z" transform="translate(0 -173.439)" fill="#023e84"/>
  </g>
</svg>
