<svg id="ic-marketing" xmlns="http://www.w3.org/2000/svg" width="106" height="100" viewBox="0 0 106 100">
  <g id="Gruppe_21557" data-name="Gruppe 21557" transform="translate(11.024)">
    <g id="Rechteck_18035" data-name="Rechteck 18035" fill="#e9435c" stroke="#707070" stroke-width="1" opacity="0">
      <rect width="85.594" height="85.594" stroke="none"/>
      <rect x="0.5" y="0.5" width="84.594" height="84.594" fill="none"/>
    </g>
    <path id="icons8-rocket" d="M67.453,2.039a6.2,6.2,0,0,0-1.532.021c-7.743,1.088-25.733,4.06-43.577,24.9H12.919L3.376,36.9a4.627,4.627,0,0,0,3.274,7.9h8.094l.369.369a14.3,14.3,0,0,0-2.076,3.957,50.984,50.984,0,0,0-1.693,5.419c-.927,3.569-1.477,6.75-1.477,6.75L8.983,66.3l5.008-.885s3.18-.549,6.75-1.477a50.983,50.983,0,0,0,5.419-1.693,14.3,14.3,0,0,0,3.957-2.076l.369.369v8.094a4.606,4.606,0,0,0,2.856,4.277,4.66,4.66,0,0,0,1.8.355,4.4,4.4,0,0,0,3.121-1.24l10.051-9.16V52.937C69.161,35.093,72.132,17.1,73.221,9.36A6.587,6.587,0,0,0,67.453,2.039ZM65.983,9.3C64.709,18.367,61.838,36.17,34.5,54.463L20.818,40.782C39.11,13.442,56.913,10.571,65.983,9.3ZM48.318,23.4a3.566,3.566,0,1,0,3.566,3.566A3.566,3.566,0,0,0,48.318,23.4Zm-10.7,10.7a3.566,3.566,0,1,0,3.566,3.566A3.566,3.566,0,0,0,37.619,34.095Zm-17.3,16.272,4.6,4.6a11.557,11.557,0,0,1-1.323.627,45.308,45.308,0,0,1-4.646,1.435c-.464.121-.441.088-.885.2.107-.444.075-.421.2-.885a45.307,45.307,0,0,1,1.435-4.646A11.559,11.559,0,0,1,20.316,50.367Z" transform="translate(8.682 5.133)" fill="#e9435c"/>
  </g>
  <path id="Pfad_3524" data-name="Pfad 3524" d="M68.679-2.7c29.271,0,37,14.155,37,29s-23.729,27-53,27-53-12.155-53-27S39.408-2.7,68.679-2.7Z" transform="translate(0.321 46.698)" fill="#e9435c" opacity="0.1"/>
</svg>
