<svg id="ic-upgrade" xmlns="http://www.w3.org/2000/svg" width="106" height="100" viewBox="0 0 106 100">
  <g id="Gruppe_21567" data-name="Gruppe 21567" transform="translate(10.376)">
    <g id="Rechteck_18040" data-name="Rechteck 18040" fill="#023e84" stroke="#707070" stroke-width="1" opacity="0">
      <rect width="85.594" height="85.594" stroke="none"/>
      <rect x="0.5" y="0.5" width="84.594" height="84.594" fill="none"/>
    </g>
    <path id="icons8-completed_task" d="M35.1,3a14.192,14.192,0,0,0-9.313,24.965H19.62L9.847,5.159,3.286,7.974l8.672,20.235A7.114,7.114,0,0,0,6.566,35.1L9.339,60.063H3V67.2H67.2V60.063H60.857L63.629,35.1a7.114,7.114,0,0,0-5.391-6.889L66.91,7.974,60.349,5.159,50.576,27.965H44.411A14.192,14.192,0,0,0,35.1,3Zm0,7.133a7.133,7.133,0,1,1-7.133,7.133A7.079,7.079,0,0,1,35.1,10.133ZM13.741,35.1H56.455L53.682,60.063H16.513ZM35.1,38.664a3.566,3.566,0,1,0,3.566,3.566A3.566,3.566,0,0,0,35.1,38.664Z" transform="translate(7.699 7.699)" fill="#023e84"/>
  </g>
  <path id="Pfad_3525" data-name="Pfad 3525" d="M68.323-2.7c29.271,0,38,14.155,38,29s-23.729,27-53,27-53-12.155-53-27S39.052-2.7,68.323-2.7Z" transform="translate(-0.323 46.698)" fill="#023e84" opacity="0.1"/>
</svg>
