<svg id="ic-warenkorb-24" xmlns="http://www.w3.org/2000/svg" width="24" height="24" viewBox="0 0 24 24">
  <path id="Pfad_3026" data-name="Pfad 3026" d="M0,0H24V24H0Z" fill="none"/>
  <path id="Pfad_3027" data-name="Pfad 3027" d="M15.55,11l2.76-5H6.16l2.37,5Z" fill="#023e84" opacity="0"/>
  <path id="Pfad_3028" data-name="Pfad 3028" d="M15.55,13a1.991,1.991,0,0,0,1.75-1.03l3.58-6.49A1,1,0,0,0,20.01,4H5.21L4.27,2H1V4H3l3.6,7.59L5.25,14.03A2,2,0,0,0,7,17H19V15H7l1.1-2ZM6.16,6H18.31l-2.76,5H8.53ZM7,18a2,2,0,1,0,2,2A2,2,0,0,0,7,18Zm10,0a2,2,0,1,0,2,2A2,2,0,0,0,17,18Z" fill="#023e84"/>
</svg>
