<?xml version="1.0" encoding="UTF-8"?>
<svg xmlns="http://www.w3.org/2000/svg" id="Gruppe_23958" data-name="Gruppe 23958" width="78.164" height="78.166" viewBox="0 0 78.164 78.166"><g id="Gruppe_23873" data-name="Gruppe 23873"><g id="Gruppe_24040" data-name="Gruppe 24040"><g id="Icon"><path id="Pfad_3266" data-name="Pfad 3266" d="M60.579,78.166H17.587A17.587,17.587,0,0,1,0,60.58V17.589A17.588,17.588,0,0,1,17.589,0H60.579A17.587,17.587,0,0,1,78.164,17.587V60.58A17.587,17.587,0,0,1,60.58,78.166Z" fill="#ffe620"/></g><g id="Gruppe_23736" data-name="Gruppe 23736" transform="translate(17.868 21.177)"><path id="Pfad_13451" data-name="Pfad 13451" d="M28.37,82.293A1.36,1.36,0,0,1,27,80.942v-5.6a1.36,1.36,0,0,1,1.351-1.37H50.586a1.36,1.36,0,0,1,1.37,1.351v5.566a1.36,1.36,0,0,1-1.349,1.37H28.37Z" transform="translate(-27 -46.196)" fill="#ff7200"/><path id="Pfad_13452" data-name="Pfad 13452" d="M28.37,61.3A1.36,1.36,0,0,1,27,59.956v-5.6a1.36,1.36,0,0,1,1.351-1.37H50.586a1.36,1.36,0,0,1,1.37,1.349h0V59.9a1.36,1.36,0,0,1-1.351,1.37H28.37Z" transform="translate(-27 -39.099)" fill="#023e84"/><path id="Pfad_13453" data-name="Pfad 13453" d="M74.445,82.291a1.365,1.365,0,0,1-1.376-1.356V75.353a1.367,1.367,0,0,1,1.356-1.376h8.37a1.365,1.365,0,0,1,1.375,1.356h0v5.582a1.365,1.365,0,0,1-1.354,1.376Z" transform="translate(-42.581 -46.194)" fill="#ff7200"/><path id="Pfad_13454" data-name="Pfad 13454" d="M28.37,40.319A1.36,1.36,0,0,1,27,38.968v-5.6A1.36,1.36,0,0,1,28.349,32h38.87a1.36,1.36,0,0,1,1.37,1.351h0v5.566a1.36,1.36,0,0,1-1.349,1.37h-.021Z" transform="translate(-27 -32)" fill="#023e84"/></g></g></g></svg>