<svg id="buhl-logo" xmlns="http://www.w3.org/2000/svg" width="60.003" height="26" viewBox="0 0 60.003 26">
  <path id="Pfad_16" data-name="Pfad 16" d="M3.469,65.294H.335c-.223,0-.335.1-.335.312v3.168c0,.212.112.312.335.312H3.469c.223,0,.335-.1.335-.312V65.606a.294.294,0,0,0-.335-.312Z" transform="translate(0 -57.903)" fill="#023e84"/>
  <path id="Pfad_17" data-name="Pfad 17" d="M74.271,9.006a4.924,4.924,0,0,0-2.308-1.513,11.675,11.675,0,0,0-3.525-.463,12.176,12.176,0,0,0-1.841.135,9.778,9.778,0,0,1-1.182.135q-.268,0-.268-.237V.334a.3.3,0,0,0-.079-.251A.29.29,0,0,0,64.822,0h-2.5C62.1,0,62,.108,62,.447V25.04c0,.045.1.158.29.226a21.846,21.846,0,0,0,2.466.519,21.042,21.042,0,0,0,3.057.2,11.5,11.5,0,0,0,4-.6,5.223,5.223,0,0,0,2.476-1.874,7.872,7.872,0,0,0,1.261-3.2,24.825,24.825,0,0,0,.357-4.573,17.734,17.734,0,0,0-.379-4.009A6.371,6.371,0,0,0,74.271,9.006Zm-1.8,10.648a5.505,5.505,0,0,1-.658,2.281,2.755,2.755,0,0,1-1.472,1.208,8.016,8.016,0,0,1-2.577.339c-.368,0-.8-.023-1.283-.056a4.6,4.6,0,0,1-1.115-.192.337.337,0,0,1-.234-.373V10.372a.463.463,0,0,1,.268-.485,9.235,9.235,0,0,1,1.049-.2,10.571,10.571,0,0,1,1.539-.1,7.864,7.864,0,0,1,2.242.271,2.6,2.6,0,0,1,1.428,1.016A4.948,4.948,0,0,1,72.4,12.9a19.186,19.186,0,0,1,.212,3.207,32.264,32.264,0,0,1-.134,3.545Z" transform="translate(-55.084 0.007)" fill="#023e84"/>
  <path id="Pfad_18" data-name="Pfad 18" d="M225.18,65.4h-2.488c-.223,0-.323.112-.323.335V80.522c0,.179-.112.3-.323.368a9.057,9.057,0,0,1-1.261.2c-.469.045-.959.067-1.461.067a9.153,9.153,0,0,1-2.03-.19,2.314,2.314,0,0,1-1.885-1.929,9.076,9.076,0,0,1-.179-1.985V65.73a.292.292,0,0,0-.323-.335h-2.488c-.223,0-.323.112-.323.335V77.4a12.49,12.49,0,0,0,.323,3.09,3.94,3.94,0,0,0,1.149,1.952,4.777,4.777,0,0,0,2.231,1.037,17.522,17.522,0,0,0,3.57.3c.39,0,.837-.022,1.328-.056s1-.089,1.528-.156,1.049-.145,1.562-.234.993-.179,1.428-.268c.223-.045.323-.156.323-.335v-17a.322.322,0,0,0-.358-.335Z" transform="translate(-188.435 -57.784)" fill="#023e84"/>
  <path id="Pfad_19" data-name="Pfad 19" d="M512.328,0h-2.5c-.223,0-.335.113-.335.35V25.264a.31.31,0,0,0,.082.258.3.3,0,0,0,.253.092h2.5c.223,0,.334-.113.334-.35V.35C512.663.113,512.552,0,512.328,0Z" transform="translate(-452.66 0.002)" fill="#023e84"/>
  <path id="Pfad_20" data-name="Pfad 20" d="M3.469,188.194H.335c-.223,0-.335.1-.335.312v3.168c0,.212.112.312.335.312H3.469c.223,0,.335-.1.335-.312v-3.168a.294.294,0,0,0-.335-.312Z" transform="translate(0 -166.883)" fill="#023e84"/>
  <path id="Pfad_21" data-name="Pfad 21" d="M373.73,10.183a4.242,4.242,0,0,0-1.049-1.952,3.983,3.983,0,0,0-1.9-.992,12.927,12.927,0,0,0-2.856-.282c-.268,0-.558.011-.9.034s-.68.056-1.015.1l-1,.135c-.323.045-.625.079-.881.1-.179,0-.29-.056-.334-.158V.346a.31.31,0,0,0-.082-.258A.3.3,0,0,0,363.456,0h-2.521a.219.219,0,0,0-.123.023.3.3,0,0,0-.2.327V.459c0,.068-.011.135-.011.226l.011.271v24.3a.31.31,0,0,0,.082.258.3.3,0,0,0,.252.092h2.5c.223,0,.335-.113.335-.35v-15.2a.433.433,0,0,1,.3-.248,13.7,13.7,0,0,1,3.045-.282,8,8,0,0,1,1.919.192,2.2,2.2,0,0,1,1.149.666,2.728,2.728,0,0,1,.558,1.287,7.818,7.818,0,0,1,.145,1.694v11.88c0,.237.112.35.323.35h2.488c.223,0,.323-.113.323-.35V13.334a12.021,12.021,0,0,0-.3-3.151Z" transform="translate(-320.376 0.006)" fill="#023e84"/>
</svg>
